<?xml version="1.0" encoding="utf-8"?>
<!-- Generator: Adobe Illustrator 16.0.0, SVG Export Plug-In . SVG Version: 6.00 Build 0)  -->
<!DOCTYPE svg PUBLIC "-//W3C//DTD SVG 1.1//EN" "http://www.w3.org/Graphics/SVG/1.1/DTD/svg11.dtd">
<svg version="1.1" id="Vrstva_1" xmlns="http://www.w3.org/2000/svg" xmlns:xlink="http://www.w3.org/1999/xlink" x="0px" y="0px"
	 width="605px" height="200px" viewBox="0 0 605 200" enable-background="new 0 0 605 200" xml:space="preserve">
<g>
	<path fill="#FCC24B" d="M34.284,112.584L0.26,95.292l34.023-17.291V112.584z M53.16,41.574l-37.824-5.076l18.185,33.551
		L53.16,41.574z M186.688,36.499l-37.826,5.076l19.641,28.475L186.688,36.499z M135.852,0.266l-28.707,24.93l32.051,13.004
		l-3.228-37.934H135.852z M66.057,0.266l-3.229,37.934l32.051-13.004L66.173,0.266H66.057z M15.336,155.209l37.824-5.076
		l-19.64-28.475L15.336,155.209z M129.361,78.001c10.031,0,19.465,2.557,27.688,7.051c-5.059-26.677-28.48-46.853-56.63-46.853
		c-31.841,0-57.656,25.812-57.656,57.653c0,21.713,12.008,40.613,29.74,50.446c-0.622-3.399-0.964-6.897-0.964-10.477
		C71.54,103.889,97.427,78.001,129.361,78.001"/>
	<path fill="#FFFFFF" d="M173.994,175.745c0,4.13-0.733,7.192-2.198,9.19c-1.467,1.998-3.797,3.932-6.993,5.796
		c-1.868,1.067-4.196,2.098-6.994,3.097s-5.863,1.863-9.19,2.597c-3.333,0.731-6.829,1.299-10.491,1.698
		c-3.665,0.401-7.293,0.6-10.889,0.6c-9.591,0-18.583-1.299-26.975-3.896c-8.393-2.597-15.686-6.525-21.879-11.788
		c-6.194-5.262-11.089-11.82-14.687-19.684c-3.597-7.856-5.395-16.982-5.395-27.373c0-10.921,1.963-20.446,5.894-28.572
		c3.928-8.124,9.123-14.886,15.585-20.281c6.46-5.395,13.853-9.423,22.179-12.089c8.324-2.662,16.884-3.997,25.676-3.997
		c12.653,0,22.679,2.033,30.071,6.094c7.393,4.065,11.091,9.361,11.091,15.886c0,3.465-0.869,6.462-2.598,8.991
		c-1.732,2.532-3.73,4.531-5.995,5.994c-3.33-1.998-7.492-3.962-12.488-5.896c-4.994-1.928-10.623-2.896-16.883-2.896
		c-11.189,0-20.081,3.197-26.675,9.591c-6.594,6.394-9.89,15.253-9.89,26.576c0,6.127,0.899,11.422,2.698,15.885
		c1.797,4.464,4.227,8.127,7.292,10.988c3.062,2.865,6.594,4.995,10.59,6.394c3.995,1.398,8.257,2.098,12.787,2.098
		c2.929,0,5.525-0.266,7.792-0.799c2.264-0.53,3.997-1.131,5.195-1.797V149.37h-21.378c-0.8-1.463-1.568-3.396-2.298-5.794
		c-0.733-2.398-1.1-4.928-1.1-7.594c0-4.796,1.1-8.258,3.297-10.391c2.198-2.129,5.026-3.196,8.492-3.196h33.768
		c3.997,0,7.093,1.099,9.291,3.297c2.198,2.197,3.297,5.296,3.297,9.291V175.745z M283.287,146.973
		c0-7.724-1.269-14.787-3.798-21.181c-2.53-6.394-6.093-11.82-10.689-16.285c-4.596-4.46-10.088-7.923-16.484-10.389
		c-6.394-2.463-13.521-3.696-21.379-3.696c-7.861,0-14.986,1.199-21.38,3.596c-6.394,2.397-11.888,5.828-16.484,10.289
		c-4.595,4.465-8.16,9.892-10.689,16.285c-2.532,6.395-3.796,13.523-3.796,21.381c0,7.993,1.264,15.186,3.796,21.58
		c2.529,6.395,6.094,11.823,10.689,16.283c4.596,4.465,10.09,7.893,16.484,10.292c6.394,2.396,13.519,3.595,21.38,3.595
		c7.858,0,14.986-1.133,21.379-3.396c6.396-2.264,11.888-5.595,16.484-9.99c4.596-4.395,8.159-9.822,10.689-16.285
		C282.018,162.592,283.287,155.232,283.287,146.973 M213.354,146.973c0-7.993,1.529-14.151,4.596-18.483
		c3.062-4.326,7.393-6.493,12.987-6.493c5.594,0,9.921,2.167,12.988,6.493c3.062,4.332,4.594,10.49,4.594,18.483
		s-1.499,14.187-4.496,18.582c-2.997,4.396-7.292,6.593-12.888,6.593c-5.594,0-9.959-2.163-13.087-6.492
		C214.917,161.327,213.354,155.1,213.354,146.973 M388.829,198.723c4.661,0,9.656-0.399,14.984-1.197
		c5.326-0.802,10.122-2.33,14.388-4.597c5.595-2.929,8.392-7.394,8.392-13.388c0-2.663-0.733-5.195-2.198-7.592
		c-1.468-2.397-3.266-4.263-5.396-5.596c-3.065,1.868-7.025,3.498-11.887,4.896c-4.864,1.399-10.026,2.097-15.485,2.097
		c-5.863,0-11.058-1.098-15.586-3.297c-4.529-2.197-7.526-5.495-8.992-9.89l49.355-7.394c4.525-0.664,8.058-2.197,10.589-4.596
		c2.529-2.398,3.797-5.859,3.797-10.39c0-6.126-1.167-11.79-3.497-16.984c-2.332-5.194-5.597-9.656-9.791-13.387
		c-4.196-3.729-9.189-6.661-14.986-8.792c-5.795-2.129-12.224-3.197-19.281-3.197c-6.263,0-12.387,0.967-18.382,2.896
		c-5.994,1.932-11.325,4.931-15.984,8.993c-4.665,4.064-8.427,9.26-11.291,15.584c-2.865,6.329-4.295,13.888-4.295,22.679
		c0,8.927,1.43,16.719,4.295,23.378c2.864,6.663,6.793,12.188,11.79,16.584c4.995,4.396,10.855,7.693,17.583,9.891
		C373.673,197.625,380.968,198.723,388.829,198.723 M383.233,120.197c4.927,0,8.657,1.332,11.19,3.997
		c2.528,2.666,3.995,5.328,4.396,7.992l-34.17,5.595c0.133-2.13,0.566-4.227,1.3-6.294c0.729-2.063,1.83-3.928,3.297-5.595
		c1.464-1.665,3.362-3.029,5.695-4.097C377.271,120.731,380.037,120.197,383.233,120.197 M469.55,131.986h18.184
		c3.463,0,6.226-1.029,8.292-3.098c2.063-2.062,3.098-5.426,3.098-10.09c0-2.664-0.369-5.095-1.099-7.293
		c-0.735-2.198-1.501-4.027-2.298-5.495H469.55V93.224c0-6.66-1.632-11.021-4.895-13.088c-3.267-2.064-7.827-3.098-13.688-3.098
		c-3.065,0-5.962,0.235-8.69,0.699c-2.732,0.469-4.831,0.9-6.293,1.3v85.519c0,11.988,3.16,20.649,9.489,25.976
		c6.325,5.326,15.353,7.993,27.075,7.993c9.592,0,16.284-1.6,20.081-4.797c3.797-3.196,5.694-7.323,5.694-12.387
		c0-2.529-0.436-4.696-1.299-6.496c-0.869-1.798-1.898-3.427-3.097-4.895c-1.599,0.533-3.465,0.969-5.596,1.3
		c-2.131,0.334-4.195,0.498-6.192,0.498c-3.997,0-7.094-0.729-9.292-2.196c-2.197-1.466-3.298-3.928-3.298-7.394V131.986z
		 M603.223,146.973c0-7.724-1.269-14.787-3.799-21.181c-2.531-6.394-6.093-11.82-10.688-16.285
		c-4.598-4.46-10.09-7.923-16.485-10.389c-6.394-2.463-13.521-3.696-21.38-3.696c-7.861,0-14.986,1.199-21.38,3.596
		c-6.394,2.397-11.888,5.828-16.485,10.289c-4.593,4.465-8.16,9.892-10.688,16.285c-2.532,6.395-3.798,13.523-3.798,21.381
		c0,7.993,1.266,15.186,3.798,21.58c2.527,6.395,6.095,11.823,10.688,16.283c4.598,4.465,10.092,7.893,16.485,10.292
		c6.394,2.396,13.519,3.595,21.38,3.595c7.858,0,14.986-1.133,21.38-3.396c6.396-2.264,11.888-5.595,16.485-9.99
		c4.595-4.395,8.156-9.822,10.688-16.285C601.954,162.592,603.223,155.232,603.223,146.973 M533.288,146.973
		c0-7.993,1.53-14.151,4.597-18.483c3.061-4.326,7.393-6.493,12.986-6.493c5.595,0,9.922,2.167,12.988,6.493
		c3.062,4.332,4.596,10.49,4.596,18.483s-1.499,14.187-4.497,18.582c-2.997,4.396-7.291,6.593-12.887,6.593
		c-5.595,0-9.96-2.163-13.089-6.492C534.853,161.327,533.288,155.1,533.288,146.973 M324.741,87.233c0-3.08-0.417-5.576-1.251-7.487
		c-0.834-1.909-2.019-3.42-3.559-4.529c-1.539-1.109-3.433-1.849-5.676-2.219c-2.247-0.369-4.779-0.555-7.601-0.555
		c-2.823,0-5.612,0.217-8.369,0.648c-2.759,0.432-4.845,0.771-6.254,1.017v107.229c0,3.084,0.416,5.578,1.25,7.487
		c0.833,1.913,2.02,3.422,3.559,4.531s3.431,1.848,5.676,2.217c2.243,0.37,4.778,0.555,7.601,0.555c2.819,0,5.61-0.216,8.369-0.646
		c2.757-0.434,4.84-0.771,6.253-1.017V87.233z"/>
</g>
</svg>
